<svg xmlns="http://www.w3.org/2000/svg" height="512" viewBox="0 0 512 512" width="512"><g id="_x33__x2C__Employee_x2C__routine_x2C__time_x2C__working"><g id="XMLID_2264_"><g id="XMLID_2266_"><g fill="#fff"><circle id="XMLID_74_" cx="430.999" cy="138.502" r="30"></circle><circle id="XMLID_73_" cx="80.999" cy="243.502" r="35"></circle><path id="XMLID_72_" d="m433.499 423.502c9.67 0 17.5 7.83 17.5 17.5 0 9.668-7.82 17.5-17.5 17.5h-355c-9.67 0-17.5-7.83-17.5-17.5 0-9.668 7.82-17.5 17.5-17.5z"></path></g><path id="XMLID_71_" d="m350.999 303.502c-3.13 25.039-12.165 97.321-15 120h-160c-3.052-24.413-11.678-93.421-15-120z" fill="#9bc9ff"></path><path id="XMLID_70_" d="m400.999 373.502h-58.75l8.75-70h-70l-25-65v-.25h12.79c74.7 0 132.21 60.55 132.21 135.25z" fill="#fff"></path><path id="XMLID_69_" d="m255.999 238.252v.25l-25 65h-70l8.75 70h-58.75c0-74.7 60.56-135.25 135.25-135.25z" fill="#fff"></path><path id="XMLID_68_" d="m255.999 238.502 25 65h-50z" fill="#9bc9ff"></path><path id="XMLID_67_" d="m339.729 154.532c0 46.24-37.49 83.72-83.731 83.72-48.137 0-86.335-40.474-83.59-88.5h.01c7.85 2.44 16.2 3.75 24.85 3.75 31.88 0 59.59-17.81 73.73-44.02 13.39 24.82 38.96 42.1 68.7 43.86h.01c.021.39.021.79.021 1.19z" fill="#fff"></path><path id="XMLID_66_" d="m339.709 153.342h-.01c-29.74-1.76-55.311-19.04-68.7-43.86-14.14 26.21-41.85 44.02-73.73 44.02-8.65 0-17-1.31-24.85-3.75h-.01c2.47-44.02 38.95-78.95 83.59-78.95 45.84 0 83.08 36.85 83.71 82.54z" fill="#9bc9ff"></path><g id="XMLID_2268_"><g id="XMLID_2961_" fill="#1e81ce"><path id="XMLID_3049_" d="m470.419 303.112c-1.59-3.82-5.99-5.62-9.81-4.03-3.82 1.6-5.62 5.99-4.03 9.81 1.6 3.82 5.99 5.63 9.81 4.03 3.82-1.59 5.629-5.99 4.03-9.81z"></path><path id="XMLID_3048_" d="m396.388 67.922c3.82-1.6 5.62-5.99 4.03-9.81-1.6-3.83-5.99-5.63-9.81-4.03-3.82 1.59-5.63 5.99-4.03 9.81 1.591 3.82 5.991 5.63 9.81 4.03z"></path><path id="XMLID_3047_" d="m381.388 212.922c3.82-1.6 5.62-5.99 4.03-9.81-1.6-3.83-5.99-5.63-9.81-4.03-3.82 1.59-5.63 5.99-4.03 9.81 1.591 3.82 5.991 5.63 9.81 4.03z"></path><path id="XMLID_3046_" d="m161.389 62.922c3.83-1.6 5.63-5.99 4.03-9.81-1.59-3.83-5.99-5.63-9.81-4.03-3.82 1.59-5.63 5.99-4.03 9.81s5.99 5.63 9.81 4.03z"></path><path id="XMLID_3045_" d="m76.389 147.922c3.82-1.59 5.63-5.99 4.03-9.81s-5.99-5.63-9.81-4.03c-3.83 1.6-5.63 5.99-4.03 9.81 1.59 3.83 5.99 5.63 9.81 4.03z"></path><path id="XMLID_3044_" d="m61.389 357.922c3.83-1.6 5.63-5.99 4.03-9.81-1.59-3.82-5.99-5.63-9.81-4.03-3.82 1.59-5.63 5.99-4.03 9.81s5.99 5.62 9.81 4.03z"></path><path id="XMLID_2984_" d="m433.499 418.502h-91.837l5-40h54.337c2.762 0 5-2.238 5-5 0-69.889-48.317-126.919-113.299-138.202 30.664-13.986 52.029-44.928 52.029-80.768 0-48.903-39.593-88.73-88.731-88.73-48.973 0-88.73 39.69-88.73 88.73 0 36.181 21.775 67.368 52.908 81.16-64.918 12.255-114.178 69.383-114.178 137.81 0 2.762 2.239 5 5 5h54.336l5 40h-91.835c-12.434 0-22.5 10.051-22.5 22.5 0 12.406 10.093 22.5 22.5 22.5h355c12.434 0 22.5-10.051 22.5-22.5 0-12.406-10.094-22.5-22.5-22.5zm-253.086 0-13.75-110h178.672l-13.75 110zm57.866-120 17.72-46.071 17.72 46.071zm157.632 70h-47.999l8.048-64.38c.374-2.979-1.954-5.62-4.961-5.62h-66.565l-21.25-55.25h5.605c69.695 0 124.638 54.62 127.122 125.25zm-139.912-292.7c40.928 0 74.976 31.826 78.409 72.016-25.063-3.251-46.847-18.166-59.009-40.71-.873-1.618-2.563-2.626-4.4-2.626-1.838 0-3.527 1.008-4.4 2.626-17.33 32.124-54.073 47.832-88.87 38.938 4.238-39.701 37.874-70.244 78.27-70.244zm-78.687 80.446c35.372 8.133 72.876-6.025 93.682-37.083 14.507 21.734 37.571 35.828 63.649 38.755-1.782 41.839-36.369 75.332-78.645 75.332-42.836 0-77.767-34.39-78.686-77.004zm-61.218 212.254c2.637-69.512 60.01-125.25 130.155-125.25h2.566l-21.25 55.25h-66.566c-3.006 0-5.334 2.638-4.961 5.62l8.047 64.38zm317.405 85h-355c-6.893 0-12.5-5.607-12.5-12.5 0-6.912 5.577-12.5 12.5-12.5h355c6.893 0 12.5 5.607 12.5 12.5 0 6.912-5.576 12.5-12.5 12.5z"></path><path id="XMLID_2966_" d="m430.999 173.502c19.299 0 35-15.701 35-35s-15.701-35-35-35-35 15.701-35 35 15.701 35 35 35zm0-60c13.785 0 25 11.215 25 25s-11.215 25-25 25-25-11.215-25-25 11.215-25 25-25z"></path><path id="XMLID_2962_" d="m80.999 283.502c22.056 0 40-17.944 40-40s-17.944-40-40-40-40 17.944-40 40 17.944 40 40 40zm0-70c16.542 0 30 13.458 30 30s-13.458 30-30 30-30-13.458-30-30 13.458-30 30-30z"></path></g></g></g></g></g></svg>