<svg xmlns="http://www.w3.org/2000/svg" height="512" viewBox="0 0 520 520" width="512"><g><g><path d="m430 417.5c-11.92 0-279.675 0-300 0 0-12.796 0-365.344 0-379h240v60h60z" fill="#fff"></path><path d="m389.78 387.63c3.42 3.41 5.13 7.89 5.13 12.37s-1.71 8.96-5.13 12.37c-3.41 3.42-7.89 5.13-12.37 5.13s-8.96-1.71-12.38-5.13l-35.61-35.61c-21.369 10.641-48.22 6.521-65.33-12.39-18.96-20.96-18.76-53.42.43-74.16 21.32-23.05 57.311-23.57 79.301-1.58 17.15 17.15 20.59 42.811 10.35 63.39z" fill="#9bc9ff"></path><path d="m467.5 37.5c12.42 0 22.5 10.07 22.5 22.5s-10.08 22.5-22.5 22.5c-12.43 0-22.5-10.07-22.5-22.5s10.07-22.5 22.5-22.5z" fill="#9bc9ff"></path><path d="m47.5 357.5c9.66 0 17.5 7.83 17.5 17.5s-7.84 17.5-17.5 17.5c-9.67 0-17.5-7.83-17.5-17.5s7.83-17.5 17.5-17.5z" fill="#9bc9ff"></path><path d="m326.141 306.31c11.719 11.71 11.719 30.71 0 42.421-11.711 11.72-30.711 11.72-42.431 0-11.71-11.711-11.71-30.711 0-42.421 11.72-11.72 30.72-11.72 42.431 0z" fill="#fff"></path><path d="m430 417.5v30h-60-240v-30h247.41z" fill="#fff"></path><path d="m370 448.5v34h-275v-394h35v329 30h240z" fill="#9bc9ff"></path><path d="m370 38.5c18.551 18.55 41.45 41.45 60 60h-60z" fill="#9bc9ff"></path><g fill="#1e81ce"><path d="m462.5 117.5c4.141 0 7.5 3.36 7.5 7.5s-3.359 7.5-7.5 7.5c-4.15 0-7.5-3.36-7.5-7.5s3.35-7.5 7.5-7.5z"></path><path d="m457.5 267.5c4.141 0 7.5 3.36 7.5 7.5s-3.359 7.5-7.5 7.5c-4.15 0-7.5-3.36-7.5-7.5s3.35-7.5 7.5-7.5z"></path><path d="m422.5 472.5c4.141 0 7.5 3.36 7.5 7.5s-3.359 7.5-7.5 7.5c-4.15 0-7.5-3.36-7.5-7.5s3.35-7.5 7.5-7.5z"></path><path d="m92.5 37.5c4.14 0 7.5 3.36 7.5 7.5s-3.36 7.5-7.5 7.5c-4.15 0-7.5-3.36-7.5-7.5s3.35-7.5 7.5-7.5z"></path><path d="m67.5 307.5c4.14 0 7.5 3.36 7.5 7.5s-3.36 7.5-7.5 7.5c-4.15 0-7.5-3.36-7.5-7.5s3.35-7.5 7.5-7.5z"></path><path d="m47.5 157.5c4.14 0 7.5 3.36 7.5 7.5s-3.36 7.5-7.5 7.5c-4.15 0-7.5-3.36-7.5-7.5s3.35-7.5 7.5-7.5z"></path><path d="m370 487.5h-275c-2.761 0-5-2.238-5-5v-394c0-2.761 2.239-5 5-5h35c2.761 0 5 2.239 5 5s-2.239 5-5 5h-30v384h265v-29c0-2.762 2.238-5 5-5s5 2.238 5 5v34c0 2.762-2.238 5-5 5z"></path><path d="m430 103.5h-60c-2.762 0-5-2.239-5-5v-60c0-2.761 2.238-5 5-5s5 2.239 5 5v55h55c2.762 0 5 2.239 5 5s-2.238 5-5 5z"></path><path d="m47.5 397.5c-12.407 0-22.5-10.094-22.5-22.5s10.093-22.5 22.5-22.5 22.5 10.094 22.5 22.5-10.093 22.5-22.5 22.5zm0-35c-6.893 0-12.5 5.607-12.5 12.5s5.607 12.5 12.5 12.5 12.5-5.607 12.5-12.5-5.607-12.5-12.5-12.5z"></path><path d="m467.5 87.5c-15.164 0-27.5-12.336-27.5-27.5s12.336-27.5 27.5-27.5 27.5 12.336 27.5 27.5-12.336 27.5-27.5 27.5zm0-45c-9.649 0-17.5 7.851-17.5 17.5s7.851 17.5 17.5 17.5 17.5-7.851 17.5-17.5-7.851-17.5-17.5-17.5z"></path><path d="m430 422.5h-300c-2.761 0-5-2.238-5-5s2.239-5 5-5h300c2.762 0 5 2.238 5 5s-2.238 5-5 5z"></path><path d="m430 452.5h-300c-2.761 0-5-2.238-5-5v-409c0-2.761 2.239-5 5-5h240c1.326 0 2.598.527 3.535 1.464l60 60c.938.938 1.465 2.21 1.465 3.536v349c0 2.762-2.238 5-5 5zm-295-10h290v-341.929l-57.071-57.071h-232.929z"></path><path d="m377.41 422.5c-6.011 0-11.663-2.342-15.916-6.595l-33.15-33.15c-7.375 3.12-15.408 4.757-23.445 4.757-16.912 0-33.139-7.212-44.516-19.787-20.624-22.798-20.418-58.338.467-80.91 11.342-12.262 27.406-19.294 44.078-19.294 16.027 0 31.096 6.241 42.428 17.574 17.392 17.392 22.332 43.441 12.813 65.852l33.148 33.148c4.25 4.238 6.594 9.889 6.594 15.905s-2.344 11.667-6.6 15.911c-4.234 4.245-9.884 6.589-15.901 6.589zm-47.992-50.74c1.298 0 2.578.505 3.537 1.465l35.611 35.61c2.363 2.363 5.504 3.665 8.844 3.665s6.477-1.3 8.83-3.66c2.37-2.364 3.67-5.5 3.67-8.84s-1.3-6.476-3.66-8.829l-35.615-35.616c-1.52-1.519-1.898-3.839-.941-5.763 9.582-19.258 5.802-42.416-9.408-57.627-9.444-9.443-22.001-14.645-35.357-14.645-14.097 0-27.144 5.713-36.737 16.085-17.401 18.807-17.574 48.417-.393 67.41 9.485 10.483 23.008 16.496 37.101 16.496 7.717 0 15.425-1.808 22.293-5.228.707-.351 1.469-.523 2.225-.523z"></path><path d="m304.929 362.521c-9.351 0-18.142-3.642-24.755-10.255-13.645-13.646-13.645-35.848 0-49.491 6.613-6.613 15.404-10.255 24.755-10.255 9.352 0 18.141 3.643 24.749 10.256 6.609 6.605 10.252 15.394 10.252 24.744s-3.643 18.14-10.256 24.748c-6.605 6.61-15.394 10.253-24.745 10.253zm0-60.001c-6.679 0-12.96 2.602-17.683 7.325-9.746 9.746-9.746 25.604 0 35.351 4.723 4.724 11.004 7.325 17.683 7.325s12.956-2.602 17.675-7.324c4.726-4.722 7.326-10.999 7.326-17.677s-2.601-12.954-7.324-17.673c-4.721-4.726-10.999-7.327-17.677-7.327z"></path><path d="m275 157.5h-95c-2.761 0-5-2.239-5-5s2.239-5 5-5h95c2.762 0 5 2.239 5 5s-2.238 5-5 5z"></path><path d="m380 182.5h-200c-2.761 0-5-2.239-5-5s2.239-5 5-5h200c2.762 0 5 2.239 5 5s-2.238 5-5 5z"></path><path d="m380 207.5h-200c-2.761 0-5-2.239-5-5s2.239-5 5-5h200c2.762 0 5 2.239 5 5s-2.238 5-5 5z"></path><path d="m380 232.5h-200c-2.761 0-5-2.239-5-5s2.239-5 5-5h200c2.762 0 5 2.239 5 5s-2.238 5-5 5z"></path><path d="m380 257.5h-200c-2.761 0-5-2.239-5-5s2.239-5 5-5h200c2.762 0 5 2.239 5 5s-2.238 5-5 5z"></path><path d="m240 282.5h-60c-2.761 0-5-2.238-5-5s2.239-5 5-5h60c2.761 0 5 2.238 5 5s-2.239 5-5 5z"></path><path d="m230 307.5h-50c-2.761 0-5-2.238-5-5s2.239-5 5-5h50c2.761 0 5 2.238 5 5s-2.239 5-5 5z"></path><path d="m225 332.5h-45c-2.761 0-5-2.238-5-5s2.239-5 5-5h45c2.761 0 5 2.238 5 5s-2.239 5-5 5z"></path><path d="m235 357.5h-55c-2.761 0-5-2.238-5-5s2.239-5 5-5h55c2.761 0 5 2.238 5 5s-2.239 5-5 5z"></path></g><path d="m430 417.5c-11.92 0-279.675 0-300 0 0-12.796 0-365.344 0-379h240v60h60z" fill="#fff"></path><path d="m389.78 387.63c3.42 3.41 5.13 7.89 5.13 12.37s-1.71 8.96-5.13 12.37c-3.41 3.42-7.89 5.13-12.37 5.13s-8.96-1.71-12.38-5.13l-35.61-35.61c-21.369 10.641-48.22 6.521-65.33-12.39-18.96-20.96-18.76-53.42.43-74.16 21.32-23.05 57.311-23.57 79.301-1.58 17.15 17.15 20.59 42.811 10.35 63.39z" fill="#9bc9ff"></path><path d="m467.5 37.5c12.42 0 22.5 10.07 22.5 22.5s-10.08 22.5-22.5 22.5c-12.43 0-22.5-10.07-22.5-22.5s10.07-22.5 22.5-22.5z" fill="#9bc9ff"></path><path d="m47.5 357.5c9.66 0 17.5 7.83 17.5 17.5s-7.84 17.5-17.5 17.5c-9.67 0-17.5-7.83-17.5-17.5s7.83-17.5 17.5-17.5z" fill="#9bc9ff"></path><path d="m326.141 306.31c11.719 11.71 11.719 30.71 0 42.421-11.711 11.72-30.711 11.72-42.431 0-11.71-11.711-11.71-30.711 0-42.421 11.72-11.72 30.72-11.72 42.431 0z" fill="#fff"></path><path d="m430 417.5v30h-60-240v-30h247.41z" fill="#fff"></path><path d="m370 448.5v34h-275v-394h35v329 30h240z" fill="#9bc9ff"></path><path d="m370 38.5c18.551 18.55 41.45 41.45 60 60h-60z" fill="#9bc9ff"></path><path d="m462.5 117.5c4.141 0 7.5 3.36 7.5 7.5s-3.359 7.5-7.5 7.5c-4.15 0-7.5-3.36-7.5-7.5s3.35-7.5 7.5-7.5z" fill="#1e81ce"></path><path d="m457.5 267.5c4.141 0 7.5 3.36 7.5 7.5s-3.359 7.5-7.5 7.5c-4.15 0-7.5-3.36-7.5-7.5s3.35-7.5 7.5-7.5z" fill="#1e81ce"></path><path d="m422.5 472.5c4.141 0 7.5 3.36 7.5 7.5s-3.359 7.5-7.5 7.5c-4.15 0-7.5-3.36-7.5-7.5s3.35-7.5 7.5-7.5z" fill="#1e81ce"></path><path d="m92.5 37.5c4.14 0 7.5 3.36 7.5 7.5s-3.36 7.5-7.5 7.5c-4.15 0-7.5-3.36-7.5-7.5s3.35-7.5 7.5-7.5z" fill="#1e81ce"></path><path d="m67.5 307.5c4.14 0 7.5 3.36 7.5 7.5s-3.36 7.5-7.5 7.5c-4.15 0-7.5-3.36-7.5-7.5s3.35-7.5 7.5-7.5z" fill="#1e81ce"></path><path d="m47.5 157.5c4.14 0 7.5 3.36 7.5 7.5s-3.36 7.5-7.5 7.5c-4.15 0-7.5-3.36-7.5-7.5s3.35-7.5 7.5-7.5z" fill="#1e81ce"></path><path d="m370 487.5h-275c-2.761 0-5-2.238-5-5v-394c0-2.761 2.239-5 5-5h35c2.761 0 5 2.239 5 5s-2.239 5-5 5h-30v384h265v-29c0-2.762 2.238-5 5-5s5 2.238 5 5v34c0 2.762-2.238 5-5 5z" fill="#1e81ce"></path><path d="m430 103.5h-60c-2.762 0-5-2.239-5-5v-60c0-2.761 2.238-5 5-5s5 2.239 5 5v55h55c2.762 0 5 2.239 5 5s-2.238 5-5 5z" fill="#1e81ce"></path><path d="m47.5 397.5c-12.407 0-22.5-10.094-22.5-22.5s10.093-22.5 22.5-22.5 22.5 10.094 22.5 22.5-10.093 22.5-22.5 22.5zm0-35c-6.893 0-12.5 5.607-12.5 12.5s5.607 12.5 12.5 12.5 12.5-5.607 12.5-12.5-5.607-12.5-12.5-12.5z" fill="#1e81ce"></path><path d="m467.5 87.5c-15.164 0-27.5-12.336-27.5-27.5s12.336-27.5 27.5-27.5 27.5 12.336 27.5 27.5-12.336 27.5-27.5 27.5zm0-45c-9.649 0-17.5 7.851-17.5 17.5s7.851 17.5 17.5 17.5 17.5-7.851 17.5-17.5-7.851-17.5-17.5-17.5z" fill="#1e81ce"></path><path d="m430 422.5h-300c-2.761 0-5-2.238-5-5s2.239-5 5-5h300c2.762 0 5 2.238 5 5s-2.238 5-5 5z" fill="#1e81ce"></path><path d="m430 452.5h-300c-2.761 0-5-2.238-5-5v-409c0-2.761 2.239-5 5-5h240c1.326 0 2.598.527 3.535 1.464l60 60c.938.938 1.465 2.21 1.465 3.536v349c0 2.762-2.238 5-5 5zm-295-10h290v-341.929l-57.071-57.071h-232.929z" fill="#1e81ce"></path><path d="m377.41 422.5c-6.011 0-11.663-2.342-15.916-6.595l-33.15-33.15c-7.375 3.12-15.408 4.757-23.445 4.757-16.912 0-33.139-7.212-44.516-19.787-20.624-22.798-20.418-58.338.467-80.91 11.342-12.262 27.406-19.294 44.078-19.294 16.027 0 31.096 6.241 42.428 17.574 17.392 17.392 22.332 43.441 12.813 65.852l33.148 33.148c4.25 4.238 6.594 9.889 6.594 15.905s-2.344 11.667-6.6 15.911c-4.234 4.245-9.884 6.589-15.901 6.589zm-47.992-50.74c1.298 0 2.578.505 3.537 1.465l35.611 35.61c2.363 2.363 5.504 3.665 8.844 3.665s6.477-1.3 8.83-3.66c2.37-2.364 3.67-5.5 3.67-8.84s-1.3-6.476-3.66-8.829l-35.615-35.616c-1.52-1.519-1.898-3.839-.941-5.763 9.582-19.258 5.802-42.416-9.408-57.627-9.444-9.443-22.001-14.645-35.357-14.645-14.097 0-27.144 5.713-36.737 16.085-17.401 18.807-17.574 48.417-.393 67.41 9.485 10.483 23.008 16.496 37.101 16.496 7.717 0 15.425-1.808 22.293-5.228.707-.351 1.469-.523 2.225-.523z" fill="#1e81ce"></path><path d="m304.929 362.521c-9.351 0-18.142-3.642-24.755-10.255-13.645-13.646-13.645-35.848 0-49.491 6.613-6.613 15.404-10.255 24.755-10.255 9.352 0 18.141 3.643 24.749 10.256 6.609 6.605 10.252 15.394 10.252 24.744s-3.643 18.14-10.256 24.748c-6.605 6.61-15.394 10.253-24.745 10.253zm0-60.001c-6.679 0-12.96 2.602-17.683 7.325-9.746 9.746-9.746 25.604 0 35.351 4.723 4.724 11.004 7.325 17.683 7.325s12.956-2.602 17.675-7.324c4.726-4.722 7.326-10.999 7.326-17.677s-2.601-12.954-7.324-17.673c-4.721-4.726-10.999-7.327-17.677-7.327z" fill="#1e81ce"></path><path d="m275 157.5h-95c-2.761 0-5-2.239-5-5s2.239-5 5-5h95c2.762 0 5 2.239 5 5s-2.238 5-5 5z" fill="#1e81ce"></path><path d="m380 182.5h-200c-2.761 0-5-2.239-5-5s2.239-5 5-5h200c2.762 0 5 2.239 5 5s-2.238 5-5 5z" fill="#1e81ce"></path><path d="m380 207.5h-200c-2.761 0-5-2.239-5-5s2.239-5 5-5h200c2.762 0 5 2.239 5 5s-2.238 5-5 5z" fill="#1e81ce"></path><path d="m380 232.5h-200c-2.761 0-5-2.239-5-5s2.239-5 5-5h200c2.762 0 5 2.239 5 5s-2.238 5-5 5z" fill="#1e81ce"></path><path d="m380 257.5h-200c-2.761 0-5-2.239-5-5s2.239-5 5-5h200c2.762 0 5 2.239 5 5s-2.238 5-5 5z" fill="#1e81ce"></path><path d="m240 282.5h-60c-2.761 0-5-2.238-5-5s2.239-5 5-5h60c2.761 0 5 2.238 5 5s-2.239 5-5 5z" fill="#1e81ce"></path><path d="m230 307.5h-50c-2.761 0-5-2.238-5-5s2.239-5 5-5h50c2.761 0 5 2.238 5 5s-2.239 5-5 5z" fill="#1e81ce"></path><path d="m225 332.5h-45c-2.761 0-5-2.238-5-5s2.239-5 5-5h45c2.761 0 5 2.238 5 5s-2.239 5-5 5z" fill="#1e81ce"></path><path d="m235 357.5h-55c-2.761 0-5-2.238-5-5s2.239-5 5-5h55c2.761 0 5 2.238 5 5s-2.239 5-5 5z" fill="#1e81ce"></path></g></g></svg>